<?xml version="1.0" standalone="no"?>
<!DOCTYPE svg PUBLIC "-//W3C//DTD SVG 20010904//EN"
 "http://www.w3.org/TR/2001/REC-SVG-20010904/DTD/svg10.dtd">
<svg version="1.0" xmlns="http://www.w3.org/2000/svg"
 width="245.000000pt" height="132.000000pt" viewBox="0 0 245.000000 132.000000"
 preserveAspectRatio="xMidYMid meet">

<g transform="translate(0.000000,132.000000) scale(0.100000,-0.100000)"
fill="#000000" stroke="none">
<path d="M990 840 l0 -480 235 0 235 0 0 480 0 480 -235 0 -235 0 0 -480z
m381 -60 c26 -14 28 -114 3 -128 -15 -8 -15 -11 5 -31 25 -25 29 -87 7 -117
-13 -17 -31 -20 -171 -24 -86 -3 -159 -3 -161 -1 -2 2 -4 73 -4 158 l0 153
151 0 c84 0 159 -5 170 -10z"/>
<path d="M1130 705 l0 -35 96 0 95 0 -3 33 -3 32 -92 3 -93 3 0 -36z"/>
<path d="M1130 575 l0 -35 95 0 95 0 0 35 0 35 -95 0 -95 0 0 -35z"/>
<path d="M0 720 l0 -480 235 0 235 0 0 480 0 480 -235 0 -235 0 0 -480z m120
10 c0 -33 3 -60 6 -60 3 0 41 27 85 61 76 58 81 60 132 57 l52 -3 -90 -64
c-115 -82 -113 -80 -95 -91 35 -20 210 -145 210 -150 0 -3 -27 -4 -60 -3 -56
2 -64 5 -147 66 l-88 65 -3 -63 -3 -63 -34 -4 -35 -4 0 158 0 158 35 0 35 0 0
-60z"/>
<path d="M1980 655 l0 -475 235 0 235 0 0 475 0 475 -235 0 -235 0 0 -475z
m368 119 c19 -13 22 -24 22 -77 0 -34 -4 -67 -8 -73 -13 -20 -48 -33 -72 -27
-36 9 -21 -10 49 -66 35 -28 60 -51 55 -52 -90 -8 -103 -3 -169 61 -52 50 -70
61 -92 58 -27 -3 -28 -6 -31 -63 l-3 -61 -34 4 -35 4 0 154 0 154 148 0 c117
0 152 -3 170 -16z"/>
<path d="M2100 690 l0 -40 94 0 94 0 4 28 c7 50 3 52 -98 52 l-94 0 0 -40z"/>
<path d="M495 948 c-3 -7 -4 -222 -3 -478 l3 -465 235 0 235 0 0 475 0 475
-233 3 c-181 2 -234 0 -237 -10z m135 -283 l0 -125 100 0 100 0 0 125 0 125
40 0 40 0 0 -133 c0 -185 9 -177 -180 -177 -189 0 -180 -8 -180 177 l0 133 40
0 40 0 0 -125z"/>
<path d="M1487 954 c-4 -4 -7 -220 -7 -481 l0 -473 238 2 237 3 0 475 0 475
-231 3 c-127 1 -233 -1 -237 -4z m393 -194 l0 -30 -125 0 -125 0 0 -30 0 -30
75 0 75 0 0 -30 0 -30 -75 0 -75 0 0 -35 0 -35 125 0 125 0 0 -30 0 -30 -160
0 -160 0 0 155 0 155 160 0 160 0 0 -30z"/>
</g>
</svg>
